<svg id="checked_2_" data-name="checked (2)" xmlns="http://www.w3.org/2000/svg" width="37.422" height="37.422" viewBox="0 0 37.422 37.422">
  <g id="Group_28" data-name="Group 28" transform="translate(8.885 4.702)">
    <g id="Group_27" data-name="Group 27">
      <path id="Path_1940" data-name="Path 1940" d="M149.034,64.742a1.41,1.41,0,0,0-1.994,0L130.12,81.614l-6.1-6.63a1.41,1.41,0,0,0-2.075,1.911l7.1,7.71a1.409,1.409,0,0,0,1.007.455h.03a1.412,1.412,0,0,0,1-.411l17.959-17.912A1.41,1.41,0,0,0,149.034,64.742Z" transform="translate(-121.568 -64.327)" fill="#58b368"/>
    </g>
  </g>
  <g id="Group_30" data-name="Group 30">
    <g id="Group_29" data-name="Group 29">
      <path id="Path_1941" data-name="Path 1941" d="M36.011,17.3a1.41,1.41,0,0,0-1.41,1.41,15.89,15.89,0,1,1-15.89-15.89,1.41,1.41,0,1,0,0-2.821A18.711,18.711,0,1,0,37.422,18.711,1.41,1.41,0,0,0,36.011,17.3Z" fill="#58b368"/>
    </g>
  </g>
</svg>
