<svg xmlns="http://www.w3.org/2000/svg" viewBox="0 0 511 489.7" xmlns:v="https://vecta.io/nano"><path d="M509.7 185.1c-3.3-10.3-12.5-17.7-23.4-18.7L338.8 153 280.5 16.5c-5.9-13.8-21.8-20.2-35.6-14.4a27.4 27.4 0 0 0-14.4 14.4L172.2 153 24.7 166.4C9.7 167.8-1.3 181 .1 196c.6 6.9 3.9 13.3 9.2 17.9l111.5 97.8-32.9 144.8c-3.4 14.6 5.7 29.2 20.3 32.5 6.8 1.6 14 .4 20.1-3.2l127.2-76 127.2 76c12.9 7.7 29.5 3.5 37.2-9.4 3.6-6 4.7-13.2 3.2-20l-32.9-144.8 111.5-97.8c8.2-7 11.3-18.4 8-28.7z" fill="#fb0"/></svg>