<svg xmlns="http://www.w3.org/2000/svg" viewBox="0 0 53.63 53.63"><defs><style>.cls-1{fill:#fff;}</style></defs><title>zoom</title><g id="Слой_2"><g id="Иконки"><path d="M22.66 36a1.5 1.5 0 0 1-1.5-1.5V10.8a1.5 1.5 0 1 1 3 0v23.7a1.5 1.5 0 0 1-1.5 1.5zM34.5 24.16H10.8a1.5 1.5 0 0 1 0-3h23.7a1.5 1.5 0 0 1 0 3zM22.66 45.3A22.66 22.66 0 1 1 45.3 22.67 22.68 22.68 0 0 1 22.67 45.3zm0-42.3A19.66 19.66 0 1 0 42.3 22.66 19.68 19.68 0 0 0 22.67 3zM52.13 53.63a1.5 1.5 0 0 1-1-.42L36.35 38.9a1.5 1.5 0 0 1 2.1-2.14L53.16 51a1.5 1.5 0 0 1-1 2.58z" class="cls-1"/></g></g></svg>